<?xml version="1.0" encoding="UTF-8"?>
<svg width="172px" height="31px" viewBox="0 0 172 31" version="1.1" xmlns="http://www.w3.org/2000/svg" xmlns:xlink="http://www.w3.org/1999/xlink">
    <!-- Generator: Sketch 47.1 (45422) - http://www.bohemiancoding.com/sketch -->
    <title>Group 5</title>
    <desc>Created with Sketch.</desc>
    <defs></defs>
    <g id="Page-1" stroke="none" stroke-width="1" fill="none" fill-rule="evenodd">
        <g id="Group-5">
            <path d="M19.88,1.4 C20.0400008,1.4 20.1466664,1.466666 20.2,1.6 C20.2533336,1.733334 20.3066664,1.9066656 20.36,2.12 C20.4133336,2.3333344 20.4466666,2.739997 20.46,3.34 C20.4733334,3.940003 20.4066674,4.506664 20.26,5.04 C20.1133326,5.573336 19.773336,6.139997 19.24,6.74 C18.706664,7.340003 18.0133376,7.8266648 17.16,8.2 C16.2799956,8.5733352 15.2000064,8.7666666 13.92,8.78 C12.6399936,8.7933334 11.5866708,8.7200008 10.76,8.56 L9.48,8.28 C9.48,8.4666676 9.4733334,9.1466608 9.46,10.32 C9.4466666,11.4933392 9.44,12.4933292 9.44,13.32 L15.96,13.32 L16.16,13.4 C16.1866668,13.4266668 16.2,13.4799996 16.2,13.56 L16.2,17.8 C16.2,17.8533336 16.1733336,17.8999998 16.12,17.94 C16.0666664,17.9800002 16.0133336,18 15.96,18 L9.4,18 L9.4,21.56 C9.4266668,22.7333392 9.5533322,23.7133294 9.78,24.5 C10.0066678,25.2866706 10.2599986,25.8333318 10.54,26.14 C10.8200014,26.4466682 11.0866654,26.6733326 11.34,26.82 C11.5933346,26.9666674 11.7933326,27.0933328 11.94,27.2 C12.0866674,27.3066672 12.1200004,27.4533324 12.04,27.64 C11.773332,28.4133372 11.1000054,29.1466632 10.02,29.84 C8.9399946,30.5333368 7.8266724,30.88 6.68,30.88 C4.9199912,30.88 3.4666724,30.3000058 2.32,29.14 C1.1733276,27.9799942 0.6,26.2266784 0.6,23.88 L0.64,1.6 C0.6666668,1.4933328 0.7333328,1.4266668 0.84,1.4 L19.88,1.4 Z M39.16,20.04 C39.16,23.106682 38.1066772,25.6866562 36,27.78 C33.8933228,29.8733438 31.2133496,30.92 27.96,30.92 C24.759984,30.92 22.093344,29.8666772 19.96,27.76 C17.826656,25.6533228 16.76,23.0800152 16.76,20.04 C16.76,16.9999848 17.826656,14.4266772 19.96,12.32 C22.093344,10.2133228 24.759984,9.16 27.96,9.16 C31.160016,9.16 33.826656,10.2133228 35.96,12.32 C38.093344,14.4266772 39.16,16.9999848 39.16,20.04 Z M24.64,20.04 C24.64,21.8533424 24.9199972,23.3666606 25.48,24.58 C26.0400028,25.7933394 26.8666612,26.4 27.96,26.4 C29.1066724,26.4 29.946664,25.8133392 30.48,24.64 C31.013336,23.4666608 31.28,21.9333428 31.28,20.04 C31.28,18.1999908 31.0000028,16.680006 30.44,15.48 C29.8799972,14.279994 29.0533388,13.68 27.96,13.68 C26.8399944,13.68 26.0066694,14.2733274 25.46,15.46 C24.9133306,16.6466726 24.64,18.173324 24.64,20.04 Z M62.36,20.04 C62.36,23.106682 61.3066772,25.6866562 59.2,27.78 C57.0933228,29.8733438 54.4133496,30.92 51.16,30.92 C47.959984,30.92 45.293344,29.8666772 43.16,27.76 C41.026656,25.6533228 39.96,23.0800152 39.96,20.04 C39.96,16.9999848 41.026656,14.4266772 43.16,12.32 C45.293344,10.2133228 47.959984,9.16 51.16,9.16 C54.360016,9.16 57.026656,10.2133228 59.16,12.32 C61.293344,14.4266772 62.36,16.9999848 62.36,20.04 Z M47.84,20.04 C47.84,21.8533424 48.1199972,23.3666606 48.68,24.58 C49.2400028,25.7933394 50.0666612,26.4 51.16,26.4 C52.3066724,26.4 53.146664,25.8133392 53.68,24.64 C54.213336,23.4666608 54.48,21.9333428 54.48,20.04 C54.48,18.1999908 54.2000028,16.680006 53.64,15.48 C53.0799972,14.279994 52.2533388,13.68 51.16,13.68 C50.0399944,13.68 49.2066694,14.2733274 48.66,15.46 C48.1133306,16.6466726 47.84,18.173324 47.84,20.04 Z M85.68,21.92 C85.68,23.0933392 85.7666658,24.0733294 85.94,24.86 C86.1133342,25.6466706 86.3066656,26.1933318 86.52,26.5 C86.7333344,26.8066682 86.9533322,27.0399992 87.18,27.2 C87.4066678,27.3600008 87.5733328,27.4866662 87.68,27.58 C87.7866672,27.6733338 87.8000004,27.8133324 87.72,28 C87.5066656,28.6933368 86.9200048,29.339997 85.96,29.94 C84.9999952,30.540003 83.986672,30.84 82.92,30.84 C81.5333264,30.84 80.3466716,30.4333374 79.36,29.62 C78.3733284,28.8066626 77.746668,27.6933404 77.48,26.28 C75.9066588,29.3200152 73.8000132,30.84 71.16,30.84 C69.559992,30.84 68.1466728,30.2933388 66.92,29.2 C65.6933272,28.1066612 64.7866696,26.7466748 64.2,25.12 C63.6133304,23.4933252 63.32,21.7600092 63.32,19.92 C63.32,16.986652 64.0333262,14.4466774 65.46,12.3 C66.8866738,10.1533226 68.8533208,9.08 71.36,9.08 C73.9200128,9.08 75.9066596,10.346654 77.32,12.88 L77.32,1.44 C77.3466668,1.3333328 77.4133328,1.2666668 77.52,1.24 L85.52,1.24 C85.6266672,1.24 85.68,1.2933328 85.68,1.4 L85.68,21.92 Z M74.56,25.32 C75.493338,25.32 76.226664,24.8133384 76.76,23.8 C77.293336,22.7866616 77.56,21.4933412 77.56,19.92 C77.56,18.3466588 77.293336,17.0466718 76.76,16.02 C76.226664,14.9933282 75.493338,14.48 74.56,14.48 C73.5999952,14.48 72.853336,14.9933282 72.32,16.02 C71.786664,17.0466718 71.52,18.3466588 71.52,19.92 C71.52,21.4666744 71.786664,22.7533282 72.32,23.78 C72.853336,24.8066718 73.5999952,25.32 74.56,25.32 Z" id="Food" fill="#2D2E33"></path>
            <path d="M103.62,13.72 C109.486696,15.5066756 112.42,18.3066476 112.42,22.12 C112.42,23.6933412 112.013337,25.0733274 111.2,26.26 C110.386663,27.4466726 109.31334,28.3599968 107.98,29 C106.64666,29.6400032 105.246674,30.1133318 103.78,30.42 C102.313326,30.7266682 100.793341,30.88 99.22,30.88 C97.9666604,30.88 96.7200062,30.7733344 95.48,30.56 C94.2399938,30.3466656 93.0066728,30.0000024 91.78,29.52 C90.5533272,29.0399976 89.540004,28.3266714 88.74,27.38 C87.939996,26.4333286 87.4866672,25.3200064 87.38,24.04 C87.2999996,22.8666608 87.6799958,21.813338 88.52,20.88 C89.3600042,19.946662 90.44666,19.48 91.78,19.48 C92.5533372,19.48 93.3666624,19.613332 94.22,19.88 C95.0733376,20.146668 95.5799992,20.3866656 95.74,20.6 C95.7933336,20.7600008 95.8133334,20.906666 95.8,21.04 C95.7866666,21.173334 95.7533336,21.4133316 95.7,21.76 C95.6466664,22.1066684 95.62,22.413332 95.62,22.68 C95.6466668,24.4933424 96.4066592,25.7066636 97.9,26.32 C99.1800064,26.8266692 100.379994,26.7200036 101.5,26 C102.460005,25.3866636 102.953333,24.480006 102.98,23.28 C102.98,22.8266644 102.866668,22.400002 102.64,22 C102.413332,21.599998 102.146668,21.2600014 101.84,20.98 C101.533332,20.6999986 101.08667,20.4000016 100.5,20.08 C99.9133304,19.7599984 99.3933356,19.5066676 98.94,19.32 C98.4866644,19.1333324 97.8666706,18.8800016 97.08,18.56 C96.2933294,18.2399984 95.6866688,17.9866676 95.26,17.8 C92.9133216,16.7599948 91.340004,15.9466696 90.54,15.36 C88.6999908,13.9999932 87.7266672,12.2000112 87.62,9.96 C87.5399996,8.1733244 88.0799942,6.546674 89.24,5.08 C90.4000058,3.613326 91.8666578,2.4933372 93.64,1.72 C95.4133422,0.9466628 97.2466572,0.5333336 99.14,0.48 C102.47335,0.3999996 105.253322,0.9733272 107.48,2.2 C109.706678,3.4266728 110.82,5.1999884 110.82,7.52 C110.846667,8.9333404 110.480004,10.0466626 109.72,10.86 C108.959996,11.6733374 107.806674,12.08 106.26,12.08 C105.433329,12.08 104.68667,11.9733344 104.02,11.76 C103.35333,11.5466656 102.966667,11.3333344 102.86,11.12 C102.833333,10.9333324 102.826667,10.7533342 102.84,10.58 C102.853333,10.4066658 102.886666,10.086669 102.94,9.62 C102.993334,9.153331 103.02,8.786668 103.02,8.52 C103.073334,7.6933292 102.893335,6.9933362 102.48,6.42 C102.066665,5.8466638 101.553336,5.4800008 100.94,5.32 C100.326664,5.1599992 99.7000032,5.1199996 99.06,5.2 C98.4199968,5.2800004 97.8600024,5.5733308 97.38,6.08 C96.8999976,6.5866692 96.6333336,7.2133296 96.58,7.96 C96.58,10.3866788 98.9266432,12.3066596 103.62,13.72 Z M135.42,20.04 C135.42,23.106682 134.366677,25.6866562 132.26,27.78 C130.153323,29.8733438 127.47335,30.92 124.22,30.92 C121.019984,30.92 118.353344,29.8666772 116.22,27.76 C114.086656,25.6533228 113.02,23.0800152 113.02,20.04 C113.02,16.9999848 114.086656,14.4266772 116.22,12.32 C118.353344,10.2133228 121.019984,9.16 124.22,9.16 C127.420016,9.16 130.086656,10.2133228 132.22,12.32 C134.353344,14.4266772 135.42,16.9999848 135.42,20.04 Z M120.9,20.04 C120.9,21.8533424 121.179997,23.3666606 121.74,24.58 C122.300003,25.7933394 123.126661,26.4 124.22,26.4 C125.366672,26.4 126.206664,25.8133392 126.74,24.64 C127.273336,23.4666608 127.54,21.9333428 127.54,20.04 C127.54,18.1999908 127.260003,16.680006 126.7,15.48 C126.139997,14.279994 125.313339,13.68 124.22,13.68 C123.099994,13.68 122.266669,14.2733274 121.72,15.46 C121.173331,16.6466726 120.9,18.173324 120.9,20.04 Z M157.58,21.96 C157.58,23.4000072 157.719999,24.553329 158,25.42 C158.280001,26.286671 158.579998,26.8133324 158.9,27 C159.220002,27.1866676 159.493332,27.3533326 159.72,27.5 C159.946668,27.6466674 160.02,27.8266656 159.94,28.04 C159.699999,28.7333368 159.100005,29.379997 158.14,29.98 C157.179995,30.580003 156.166672,30.88 155.1,30.88 C153.713326,30.88 152.526672,30.4733374 151.54,29.66 C150.553328,28.8466626 149.926668,27.7200072 149.66,26.28 C148.886663,27.8533412 147.913339,29.0133296 146.74,29.76 C145.566661,30.5066704 144.380006,30.88 143.18,30.88 C141.659992,30.88 140.366672,30.2666728 139.3,29.04 C138.233328,27.8133272 137.7,26.2266764 137.7,24.28 L137.7,18.04 C137.7,16.8666608 137.593334,15.8866706 137.38,15.1 C137.166666,14.3133294 136.920001,13.7666682 136.64,13.46 C136.359999,13.1533318 136.080001,12.9200008 135.8,12.76 C135.519999,12.5999992 135.306667,12.4733338 135.16,12.38 C135.013333,12.2866662 134.966666,12.1466676 135.02,11.96 C135.260001,11.2666632 135.859995,10.620003 136.82,10.02 C137.780005,9.419997 138.793328,9.12 139.86,9.12 C141.540008,9.12 142.946661,9.6733278 144.08,10.78 C145.213339,11.8866722 145.78,13.3599908 145.78,15.2 L145.78,22.96 C145.78,24.4000072 146.179996,25.1733328 146.98,25.28 C147.673337,25.3866672 148.299997,24.9200052 148.86,23.88 C149.286669,23.1066628 149.513333,22.186672 149.54,21.12 L149.54,10.12 L149.7,9.88 L157.74,9.88 C157.846667,9.9066668 157.9,9.9733328 157.9,10.08 C157.686666,16.1600304 157.58,20.1199908 157.58,21.96 Z M161.26,1.44 C161.286667,1.3333328 161.353333,1.2666668 161.46,1.24 L169.46,1.24 L169.62,1.36 L169.62,1.44 C169.646667,13.2800592 169.66,20.1199908 169.66,21.96 C169.66,23.4000072 169.799999,24.553329 170.08,25.42 C170.360001,26.286671 170.659998,26.8133324 170.98,27 C171.300002,27.1866676 171.573332,27.3533326 171.8,27.5 C172.026668,27.6466674 172.1,27.8266656 172.02,28.04 C171.779999,28.70667 171.133339,29.3466636 170.08,29.96 C169.026661,30.5733364 167.953339,30.88 166.86,30.88 C165.206658,30.88 163.860005,30.3266722 162.82,29.22 C161.779995,28.1133278 161.26,26.6400092 161.26,24.8 L161.26,1.44 Z" id="Soul" fill="#E74D3D"></path>
        </g>
    </g>
</svg>